<svg width="67" height="64" viewBox="0 0 67 64" fill="none" xmlns="http://www.w3.org/2000/svg">
<path d="M33.4999 0.322021C25.7645 0.322342 18.2816 3.07512 12.3902 8.08779C6.49869 13.1005 2.58309 20.0459 1.34398 27.6814C0.104869 35.3169 1.62311 43.1442 5.62704 49.7627C9.63097 56.3813 15.8593 61.3591 23.1976 63.8057C24.8265 64.0908 25.4373 63.1135 25.4373 62.2583C25.4373 61.4846 25.3965 58.9192 25.3965 56.1909C17.2116 57.6976 15.0941 54.1957 14.4426 52.3633C13.7196 50.5811 12.5736 49.0017 11.1035 47.7617C9.96332 47.1509 8.33449 45.6442 11.0627 45.6036C12.1045 45.7166 13.1037 46.0791 13.9756 46.6604C14.8474 47.2416 15.5664 48.0245 16.0714 48.9426C16.517 49.743 17.1161 50.4476 17.8344 51.0161C18.5528 51.5845 19.3763 52.0057 20.2576 52.2553C21.139 52.505 22.061 52.5783 22.9708 52.471C23.8805 52.3637 24.7602 52.078 25.5593 51.6302C25.7003 49.974 26.4384 48.4256 27.6361 47.2732C20.3878 46.4587 12.8138 43.6489 12.8138 31.1885C12.768 27.9508 13.9627 24.8184 16.1529 22.4335C15.1569 19.6196 15.2735 16.5315 16.4786 13.8007C16.4786 13.8007 19.2068 12.9455 25.4372 17.1398C30.7677 15.6738 36.395 15.6738 41.7255 17.1398C47.9557 12.9048 50.6841 13.8007 50.6841 13.8007C51.8894 16.5315 52.006 19.6196 51.0099 22.4335C53.2066 24.8143 54.4024 27.9495 54.349 31.1885C54.349 43.6896 46.7341 46.4587 39.4859 47.2732C40.2633 48.0611 40.8621 49.0072 41.2415 50.0471C41.6209 51.087 41.7721 52.1963 41.6848 53.2998C41.6848 57.657 41.6441 61.1589 41.6441 62.2584C41.6441 63.1136 42.2549 64.1316 43.8837 63.8058C51.2091 61.3393 57.4195 56.3498 61.4064 49.7279C65.3933 43.106 66.8971 35.2827 65.6494 27.6546C64.4017 20.0265 60.4837 13.09 54.5948 8.08344C48.7059 3.07686 41.2294 0.326044 33.4999 0.322021Z" fill="#6B4798"/>
</svg>
