<svg width="66" height="64" viewBox="0 0 66 64" fill="none" xmlns="http://www.w3.org/2000/svg">
<path d="M65.359 39.0718V63.1591H51.3943V40.6847C51.3943 35.0388 49.3746 31.186 44.3194 31.186C40.4608 31.186 38.1645 33.7827 37.1546 36.2941C36.7862 37.1925 36.6913 38.442 36.6913 39.6994V63.1591H22.7224C22.7224 63.1591 22.9106 25.0949 22.7224 21.1509H36.6906V27.1052C36.6624 27.1501 36.6255 27.1979 36.5987 27.2413H36.6906V27.1052C38.546 24.2471 41.8602 20.1642 49.2783 20.1642C58.4693 20.1642 65.359 26.1685 65.359 39.0718ZM8.10985 0.901123C3.33119 0.901123 0.205261 4.03574 0.205261 8.1578C0.205261 12.1901 3.2407 15.4195 7.92453 15.4195H8.01791C12.8892 15.4195 15.9189 12.1908 15.9189 8.1578C15.8269 4.03574 12.8892 0.901123 8.10985 0.901123ZM1.03488 63.1591H14.9988V21.1509H1.03488V63.1591Z" fill="#6B4798"/>
</svg>
