<svg width="66" height="66" viewBox="0 0 66 66" fill="none" xmlns="http://www.w3.org/2000/svg">
<path fill-rule="evenodd" clip-rule="evenodd" d="M55.9438 9.92165C49.819 3.81892 41.6734 0.456989 32.9953 0.453369C15.1141 0.453369 0.561431 14.9356 0.554157 32.7363C0.551975 38.4264 2.04535 43.9804 4.88445 48.877L0.282104 65.6071L17.4796 61.1172C22.218 63.6894 27.5528 65.0453 32.9822 65.0467H32.9953C32.9961 65.0467 32.9946 65.0467 32.9953 65.0467C50.8744 65.0467 65.4285 50.5631 65.4358 32.7616C65.4394 24.1353 62.0686 16.0244 55.9438 9.92165ZM19.8212 33.9112C19.416 33.3726 16.5114 29.5373 16.5114 25.5665C16.5114 21.5957 18.6056 19.644 19.3483 18.8368C20.091 18.0297 20.9697 17.8277 21.5102 17.8277C22.0507 17.8277 22.5919 17.8328 23.064 17.8559C23.5615 17.8813 24.23 17.6677 24.8876 19.2408C25.5634 20.8559 27.184 24.8274 27.387 25.2306C27.5899 25.6346 27.7245 26.1051 27.4546 26.6437C27.1848 27.1816 27.0495 27.5182 26.6443 27.9895C26.2391 28.4608 25.7932 29.0414 25.4281 29.4026C25.0222 29.8051 24.5995 30.2416 25.0724 31.0488C25.5452 31.8567 27.1717 34.4983 29.5816 36.6376C32.6775 39.3863 35.2896 40.2377 36.0999 40.6416C36.9103 41.0456 37.3831 40.9782 37.8559 40.4396C38.3287 39.901 39.8825 38.084 40.423 37.2768C40.9634 36.4696 41.5039 36.6043 42.2466 36.8728C42.99 37.1421 46.9748 39.0939 47.7851 39.4971C48.5954 39.901 49.1359 40.103 49.3389 40.4396C49.5418 40.7763 49.5418 42.3914 48.866 44.2757C48.1903 46.1601 44.9518 47.8802 43.3944 48.1111C41.9978 48.3189 40.2309 48.4058 38.2887 47.7911C37.1118 47.4198 35.6017 46.9232 33.6675 46.0921C25.5372 42.5977 20.2271 34.4498 19.8212 33.9112Z" fill="#6B4798"/>
</svg>
